<svg width="28" height="28" viewBox="0 0 28 28" fill="none" xmlns="http://www.w3.org/2000/svg">
<path d="M20.125 17C20.8125 17 21.1875 16.1875 20.6875 15.75L14.5 9.625C14.1875 9.3125 13.75 9.3125 13.4375 9.625L7.25 15.75C6.8125 16.1875 7.125 17 7.8125 17H20.125ZM28 3C28 1.375 26.625 0 25 0H3C1.3125 0 0 1.375 0 3V25C0 26.6875 1.3125 28 3 28H25C26.625 28 28 26.6875 28 25V3ZM25 24.625C25 24.875 24.8125 25 24.625 25H3.375C3.125 25 3 24.875 3 24.625V3.375C3 3.1875 3.125 3 3.375 3H24.625C24.8125 3 25 3.1875 25 3.375V24.625Z" fill="#D7D5D3"/>
</svg>
