<svg width="58" height="12" viewBox="0 0 58 12" fill="none" xmlns="http://www.w3.org/2000/svg">
<path d="M3.8457 6.56348C2.72005 6.23991 1.89974 5.84342 1.38477 5.37402C0.874349 4.90007 0.619141 4.31673 0.619141 3.62402C0.619141 2.84017 0.931315 2.19303 1.55566 1.68262C2.18457 1.16764 3.00033 0.910156 4.00293 0.910156C4.68652 0.910156 5.29492 1.04232 5.82812 1.30664C6.36589 1.57096 6.7806 1.93555 7.07227 2.40039C7.36849 2.86523 7.5166 3.37337 7.5166 3.9248H6.19727C6.19727 3.32324 6.00586 2.85156 5.62305 2.50977C5.24023 2.16341 4.7002 1.99023 4.00293 1.99023C3.35579 1.99023 2.84993 2.13379 2.48535 2.4209C2.12533 2.70345 1.94531 3.09766 1.94531 3.60352C1.94531 4.00911 2.11621 4.35319 2.45801 4.63574C2.80436 4.91374 3.38997 5.16895 4.21484 5.40137C5.04427 5.63379 5.69141 5.89128 6.15625 6.17383C6.62565 6.45182 6.97201 6.77767 7.19531 7.15137C7.42318 7.52507 7.53711 7.96484 7.53711 8.4707C7.53711 9.27734 7.22266 9.92448 6.59375 10.4121C5.96484 10.8952 5.12402 11.1367 4.07129 11.1367C3.3877 11.1367 2.74967 11.0068 2.15723 10.7471C1.56478 10.4827 1.10677 10.1227 0.783203 9.66699C0.464193 9.21126 0.304688 8.69401 0.304688 8.11523H1.62402C1.62402 8.7168 1.84505 9.19303 2.28711 9.54395C2.73372 9.8903 3.32845 10.0635 4.07129 10.0635C4.764 10.0635 5.29492 9.9222 5.66406 9.63965C6.0332 9.3571 6.21777 8.97201 6.21777 8.48438C6.21777 7.99674 6.04688 7.62077 5.70508 7.35645C5.36328 7.08757 4.74349 6.82324 3.8457 6.56348ZM10.292 4.49902C10.8525 3.81087 11.5817 3.4668 12.4795 3.4668C14.0426 3.4668 14.8311 4.34863 14.8447 6.1123V11H13.5801V6.10547C13.5755 5.57227 13.4525 5.17806 13.2109 4.92285C12.974 4.66764 12.6025 4.54004 12.0967 4.54004C11.6865 4.54004 11.3265 4.64941 11.0166 4.86816C10.7067 5.08691 10.4652 5.37402 10.292 5.72949V11H9.02734V0.5H10.292V4.49902ZM21.3047 11C21.2318 10.8542 21.1725 10.5944 21.127 10.2207C20.5391 10.8314 19.8372 11.1367 19.0215 11.1367C18.2923 11.1367 17.693 10.9316 17.2236 10.5215C16.7588 10.1068 16.5264 9.58268 16.5264 8.94922C16.5264 8.17904 16.818 7.58203 17.4014 7.1582C17.9893 6.72982 18.8141 6.51562 19.876 6.51562H21.1064V5.93457C21.1064 5.49251 20.9743 5.1416 20.71 4.88184C20.4456 4.61751 20.056 4.48535 19.541 4.48535C19.0898 4.48535 18.7116 4.59928 18.4062 4.82715C18.1009 5.05501 17.9482 5.33073 17.9482 5.6543H16.6768C16.6768 5.28516 16.8066 4.92969 17.0664 4.58789C17.3307 4.24154 17.6862 3.9681 18.1328 3.76758C18.584 3.56706 19.0785 3.4668 19.6162 3.4668C20.4684 3.4668 21.1361 3.68099 21.6191 4.10938C22.1022 4.5332 22.3529 5.11882 22.3711 5.86621V9.27051C22.3711 9.94954 22.4577 10.4896 22.6309 10.8906V11H21.3047ZM19.2061 10.0361C19.6025 10.0361 19.9785 9.93359 20.334 9.72852C20.6895 9.52344 20.9469 9.25684 21.1064 8.92871V7.41113H20.1152C18.5658 7.41113 17.791 7.86458 17.791 8.77148C17.791 9.16797 17.9232 9.47786 18.1875 9.70117C18.4518 9.92448 18.7913 10.0361 19.2061 10.0361ZM27.9287 4.73828C27.7373 4.70638 27.5299 4.69043 27.3066 4.69043C26.4772 4.69043 25.9144 5.04362 25.6182 5.75V11H24.3535V3.60352H25.584L25.6045 4.45801C26.0192 3.7972 26.6071 3.4668 27.3682 3.4668C27.6143 3.4668 27.8011 3.4987 27.9287 3.5625V4.73828ZM32.0303 11.1367C31.0277 11.1367 30.2119 10.8086 29.583 10.1523C28.9541 9.49154 28.6396 8.6097 28.6396 7.50684V7.27441C28.6396 6.54069 28.7786 5.88672 29.0566 5.3125C29.3392 4.73372 29.7311 4.28255 30.2324 3.95898C30.7383 3.63086 31.2852 3.4668 31.873 3.4668C32.8346 3.4668 33.582 3.78353 34.1152 4.41699C34.6484 5.05046 34.915 5.95736 34.915 7.1377V7.66406H29.9043C29.9225 8.39323 30.1344 8.9834 30.54 9.43457C30.9502 9.88118 31.4697 10.1045 32.0986 10.1045C32.5452 10.1045 32.9235 10.0133 33.2334 9.83105C33.5433 9.64876 33.8145 9.40723 34.0469 9.10645L34.8193 9.70801C34.1995 10.6605 33.2699 11.1367 32.0303 11.1367ZM31.873 4.50586C31.3626 4.50586 30.9342 4.69271 30.5879 5.06641C30.2415 5.43555 30.0273 5.95508 29.9453 6.625H33.6504V6.5293C33.6139 5.88672 33.4408 5.38997 33.1309 5.03906C32.821 4.68359 32.4017 4.50586 31.873 4.50586ZM39.5225 7.2334C39.5225 6.50879 39.6637 5.8571 39.9463 5.27832C40.2334 4.69954 40.6299 4.25293 41.1357 3.93848C41.6462 3.62402 42.2272 3.4668 42.8789 3.4668C43.8861 3.4668 44.6995 3.81543 45.3193 4.5127C45.9437 5.20996 46.2559 6.13737 46.2559 7.29492V7.38379C46.2559 8.10384 46.1169 8.75098 45.8389 9.3252C45.5654 9.89486 45.1712 10.3392 44.6562 10.6582C44.1458 10.9772 43.5579 11.1367 42.8926 11.1367C41.89 11.1367 41.0765 10.7881 40.4521 10.0908C39.8324 9.39355 39.5225 8.4707 39.5225 7.32227V7.2334ZM40.7939 7.38379C40.7939 8.2041 40.9831 8.86263 41.3613 9.35938C41.7441 9.85612 42.2546 10.1045 42.8926 10.1045C43.5352 10.1045 44.0456 9.85384 44.4238 9.35254C44.8021 8.84668 44.9912 8.1403 44.9912 7.2334C44.9912 6.4222 44.7975 5.76595 44.4102 5.26465C44.0273 4.75879 43.5169 4.50586 42.8789 4.50586C42.2546 4.50586 41.751 4.75423 41.3682 5.25098C40.9854 5.74772 40.7939 6.45866 40.7939 7.38379ZM49.0381 3.60352L49.0791 4.5332C49.6442 3.82227 50.3825 3.4668 51.2939 3.4668C52.8571 3.4668 53.6455 4.34863 53.6592 6.1123V11H52.3945V6.10547C52.39 5.57227 52.2669 5.17806 52.0254 4.92285C51.7884 4.66764 51.417 4.54004 50.9111 4.54004C50.501 4.54004 50.141 4.64941 49.8311 4.86816C49.5212 5.08691 49.2796 5.37402 49.1064 5.72949V11H47.8418V3.60352H49.0381ZM55.5254 10.3369C55.5254 10.1182 55.5892 9.93587 55.7168 9.79004C55.849 9.64421 56.0449 9.57129 56.3047 9.57129C56.5645 9.57129 56.7604 9.64421 56.8926 9.79004C57.0293 9.93587 57.0977 10.1182 57.0977 10.3369C57.0977 10.5465 57.0293 10.722 56.8926 10.8633C56.7604 11.0046 56.5645 11.0752 56.3047 11.0752C56.0449 11.0752 55.849 11.0046 55.7168 10.8633C55.5892 10.722 55.5254 10.5465 55.5254 10.3369ZM55.5322 4.30078C55.5322 4.08203 55.596 3.89974 55.7236 3.75391C55.8558 3.60807 56.0518 3.53516 56.3115 3.53516C56.5713 3.53516 56.7673 3.60807 56.8994 3.75391C57.0361 3.89974 57.1045 4.08203 57.1045 4.30078C57.1045 4.51042 57.0361 4.68587 56.8994 4.82715C56.7673 4.96842 56.5713 5.03906 56.3115 5.03906C56.0518 5.03906 55.8558 4.96842 55.7236 4.82715C55.596 4.68587 55.5322 4.51042 55.5322 4.30078Z" fill="#817A74"/>
</svg>
