<svg width="18" height="16" viewBox="0 0 18 16" fill="none" xmlns="http://www.w3.org/2000/svg">
<path d="M17.5312 4.96875L13.0312 0.46875C12.0938 -0.46875 10.5 0.1875 10.5 1.53125V3.3125C9.15625 3.375 7.84375 3.5 6.71875 3.875C5.625 4.21875 4.75 4.71875 4.125 5.40625C3.375 6.25 3 7.28125 3 8.5C3 10.4375 4.03125 12.0312 5.625 13.0312C6.8125 13.7812 8.3125 12.6562 7.84375 11.2812C7.375 9.8125 7.3125 9.09375 10.5 8.84375V10.5C10.5 11.8438 12.0938 12.5 13.0312 11.5625L17.5312 7.0625C18.125 6.5 18.125 5.53125 17.5312 4.96875ZM12 10.5V7.28125C7.96875 7.34375 5.1875 8 6.4375 11.75C5.5 11.1875 4.5 10.1562 4.5 8.5C4.5 5.09375 8.53125 4.78125 12 4.78125V1.5L16.5 6L12 10.5ZM12.75 13.1562C12.5938 13.1875 12.5 13.3438 12.5 13.5312V14.3125C12.5 14.4375 12.4062 14.5 12.3125 14.5H1.6875C1.5625 14.5 1.5 14.4375 1.5 14.3125V3.6875C1.5 3.59375 1.5625 3.5 1.6875 3.5H4.375C4.40625 3.5 4.5 3.5 4.5625 3.46875C4.9375 3.25 5.3125 3.03125 5.75 2.875C5.90625 2.8125 6 2.6875 6 2.53125V2.375C6 2.1875 5.8125 2 5.625 2H1.5C0.65625 2 0 2.6875 0 3.5V14.5C0 15.3438 0.65625 16 1.5 16H12.5C13.3125 16 14 15.3438 14 14.5V13.1875C14 12.9062 13.6562 12.7188 13.4062 12.875C13.25 12.9688 12.9375 13.0938 12.75 13.1562Z" fill="#D7D5D3"/>
</svg>
