<svg width="18" height="10" viewBox="0 0 18 10" fill="none" xmlns="http://www.w3.org/2000/svg">
<path d="M17.0469 0.6875C17.1406 0.3125 17.0469 0 16.4844 0H14.6406C14.1719 0 13.9531 0.25 13.8281 0.53125C13.8281 0.53125 12.8906 2.8125 11.5781 4.3125C11.1406 4.71875 10.9531 4.875 10.7031 4.875C10.6094 4.875 10.4219 4.71875 10.4219 4.34375V0.6875C10.4219 0.21875 10.2969 0 9.89062 0H7.01562C6.70312 0 6.54688 0.21875 6.54688 0.4375C6.54688 0.875 7.20312 0.96875 7.26562 2.21875V4.9375C7.26562 5.53125 7.17188 5.65625 6.92188 5.65625C6.29688 5.65625 4.79688 3.34375 3.89062 0.71875C3.70312 0.21875 3.51562 0 3.04688 0H1.20312C0.703125 0 0.578125 0.25 0.578125 0.53125C0.578125 1.03125 1.20312 3.4375 3.48438 6.65625C5.01562 8.84375 7.17188 10 9.10938 10C10.2656 10 10.4219 9.75 10.4219 9.3125C10.4219 7.21875 10.3281 7 10.8906 7C11.1719 7 11.6406 7.15625 12.7344 8.21875C13.9844 9.46875 14.2031 10 14.8906 10H16.7344C17.2656 10 17.5156 9.75 17.3594 9.21875C17.0156 8.15625 14.6719 5.90625 14.5469 5.75C14.2656 5.40625 14.3594 5.25 14.5469 4.9375C14.5469 4.9375 16.7969 1.75 17.0469 0.6875Z" fill="#D7D5D3"/>
</svg>
